<svg id="Capa_1" enable-background="new 0 0 512 512" height="512" viewBox="0 0 512 512" width="512" xmlns="http://www.w3.org/2000/svg"><g><path d="m106.311 152h299.377c15.017 0 19.497-20.433 5.858-26.716l-50.546-23.284h-210l-50.546 23.284c-13.64 6.283-9.16 26.716 5.857 26.716z"/><path d="m361 55c0-30.327-24.673-55-55-55h-100c-30.327 0-55 24.673-55 55v17h210z"/><path d="m396 207c0-13.807-11.193-25-25-25h-5v50h5c13.807 0 25-11.193 25-25z"/><path d="m256 307c44.183 0 80-35.817 80-80v-45h-160v45c0 44.183 35.817 80 80 80z"/><path d="m256 482c-1.59 0-3.159-.085-4.707-.247-4.583 9.578-7.683 19.773-9.204 30.247h27.823c-1.521-10.474-4.622-20.669-9.204-30.247-1.549.162-3.118.247-4.708.247z"/><circle cx="256" cy="437" r="15"/><path d="m178.562 512h33.277c1.679-14.973 5.86-29.565 12.371-43.18-1.539-1.538-2.968-3.186-4.273-4.932-17.395 12.616-31.536 29.073-41.375 48.112z"/><path d="m292.062 463.888c-1.305 1.746-2.734 3.394-4.273 4.932 6.511 13.615 10.692 28.207 12.371 43.18h33.277c-9.838-19.039-23.979-35.496-41.375-48.112z"/><path d="m223.748 405.664-31.842-47.764-50.383 13.435c24.585 14.193 52.356 28.638 76.927 40.905 1.56-2.357 3.335-4.557 5.298-6.576z"/><path d="m410.488 382.222c-29.884 18.947-68.971 39.572-102.364 56.271 26.037 18.432 46.238 43.857 58.307 73.506h79.569c8.284 0 15-6.716 15-15v-43.903c0-32.112-20.519-60.514-50.512-70.874z"/><path d="m203.876 438.494c-33.393-16.7-72.48-37.325-102.364-56.271-29.993 10.359-50.512 38.761-50.512 70.874v43.903c0 8.284 6.716 15 15 15h79.569c12.069-29.649 32.27-55.074 58.307-73.506z"/><path d="m370.477 371.335-50.383-13.435-31.842 47.763c1.963 2.019 3.738 4.219 5.298 6.576 24.572-12.266 52.342-26.711 76.927-40.904z"/><path d="m256 392c1.727 0 3.429.108 5.107.298l34.893-52.34v-10.488c-12.403 4.859-25.895 7.53-40 7.53s-27.597-2.672-40-7.53v10.489l34.893 52.34c1.678-.191 3.38-.299 5.107-.299z"/><path d="m141 182c-13.807 0-25 11.193-25 25 0 13.807 11.193 25 25 25h5v-50z"/></g></svg>