<?xml version="1.0" encoding="iso-8859-1"?>
<!-- Generator: Adobe Illustrator 19.0.0, SVG Export Plug-In . SVG Version: 6.00 Build 0)  -->
<svg version="1.1" id="Capa_1" xmlns="http://www.w3.org/2000/svg" xmlns:xlink="http://www.w3.org/1999/xlink" x="0px" y="0px"
	 viewBox="0 0 512 512" style="enable-background:new 0 0 512 512;" xml:space="preserve">
<g>
	<g>
		<path d="M158.504,29.998c-24.813,0-44.998,21.185-44.998,45.998s20.185,44.998,44.998,44.998s44.998-20.185,44.998-44.998
			C203.501,51.183,183.317,29.998,158.504,29.998z"/>
	</g>
</g>
<g>
	<g>
		<path d="M308.495,150.992H98.506c-33.088,0-59.996,26.908-59.996,59.997v89.995c0,16.537,13.461,29.998,29.998,29.998
			c4.665,0,22.74-3.962,27.45-4.907L69.666,473.728c-4.541,15.907,4.673,32.532,20.58,37.088
			c16.457,4.677,32.594-4.973,37.102-20.595l31.163-131.52l31.133,131.505c4.38,15.233,21.378,25.181,37.117,20.595
			c14.765-4.211,25.524-19.368,20.58-37.059L218.5,311.794V210.989h89.995c16.537,0,29.998-13.461,29.998-29.998
			S325.032,150.992,308.495,150.992z"/>
	</g>
</g>
<g>
	<g>
		<path d="M434.7,60.997l34.393-35.393c4.291-4.292,5.58-10.736,3.251-16.346C470.03,3.647,464.552,0,458.488,0H308.496
			c-8.284,0-14.999,6.716-14.999,14.999v105.994h164.991c6.064,0,11.542-3.647,13.856-9.258c2.329-5.61,1.04-12.055-3.252-16.347
			L434.7,60.997z"/>
	</g>
</g>
<g>
	<g>
		<path d="M308.496,240.987h-14.999v255.987c0,8.291,6.709,14.999,14.999,14.999c8.291,0,14.999-6.709,14.999-14.999V238.857
			C318.672,240.109,313.705,240.987,308.496,240.987z"/>
	</g>
</g>
<g>
</g>
<g>
</g>
<g>
</g>
<g>
</g>
<g>
</g>
<g>
</g>
<g>
</g>
<g>
</g>
<g>
</g>
<g>
</g>
<g>
</g>
<g>
</g>
<g>
</g>
<g>
</g>
<g>
</g>
</svg>
