<?xml version="1.0" encoding="iso-8859-1"?>
<!-- Generator: Adobe Illustrator 19.0.0, SVG Export Plug-In . SVG Version: 6.00 Build 0)  -->
<svg version="1.1" id="Capa_1" xmlns="http://www.w3.org/2000/svg" xmlns:xlink="http://www.w3.org/1999/xlink" x="0px" y="0px"
	 viewBox="0 0 377.875 377.875" style="enable-background:new 0 0 377.875 377.875;" xml:space="preserve">
<g>
	<g>
		<path d="M369.838,150.876c-3.4-12.5-9.972-23.909-19.08-33.12c-18.44-17.92-47.44-25.76-86.64-12.56
			c-7.318-18.497-16.204-36.336-26.56-53.32c-12.036-18.868-26.872-35.795-44-50.2c-2.584-2.234-6.416-2.234-9,0
			c-17.13,14.418-31.967,31.358-44,50.24c-10.356,16.984-19.242,34.823-26.56,53.32c-39.16-13.24-68.2-5.4-86.64,12.56
			c-9.16,9.117-15.814,20.441-19.32,32.88c-3.647,12.702-4.614,26.024-2.84,39.12c4.36,33.12,25.48,65.2,64,76
			c19.68,5.48,26.6-2.12,29.8-13.6c3.52-12.6,0.28-24.48,17.92-28.96c5.8-1.48,19.36-2.56,10.92,7.04
			c-1.254,1.283-1.958,3.006-1.96,4.8v2.12l-0.28,22.08c-11.32-2.84-27.72-0.84-25.52,36c2.36,39.64,40,48,53.96,50
			c7.44,21.32,32,32,32,32c1.781,0.799,3.819,0.799,5.6,0c0,0,24.72-10.72,32-32c13.88-1.8,51.56-10.36,53.96-50
			c2.2-36.52-14.04-38.68-25.36-36v-24c-0.008-2.383-1.249-4.593-3.28-5.84c-6.96-8.64,7.2-7.16,12-6
			c17.68,4.48,14.44,16.36,17.92,28.96c3.2,11.52,10.08,19.08,29.8,13.6c38.36-10.64,59.52-42.72,64-76
			C374.452,176.9,373.485,163.578,369.838,150.876z M238.998,262.236h-99.16v-20.48h99.16V262.236z"/>
	</g>
</g>
<g>
</g>
<g>
</g>
<g>
</g>
<g>
</g>
<g>
</g>
<g>
</g>
<g>
</g>
<g>
</g>
<g>
</g>
<g>
</g>
<g>
</g>
<g>
</g>
<g>
</g>
<g>
</g>
<g>
</g>
</svg>
