<svg id="Capa_1" enable-background="new 0 0 510 510" height="512" viewBox="0 0 510 510" width="512" xmlns="http://www.w3.org/2000/svg"><g><path d="m255 225c16.568 0 30-13.432 30-30v-5.148c-9.389 3.329-19.484 5.148-30 5.148-10.515 0-20.611-1.818-30-5.148v5.148c0 16.568 13.432 30 30 30z"/><path d="m194.211 45h120.789v-1c0-24.301-19.699-44-44-44h-106v16c0 .111 0 .223.001.333.118 15.921 13.289 28.667 29.21 28.667z"/><path d="m255 165c33.137 0 60-26.863 60-60v-30h-120v30c0 33.137 26.863 60 60 60z"/><path d="m60 315h390v45h-390z"/><path d="m180 465h150v45h-150z"/><path d="m90 510h60v-75h210v75h60v-120h-330z"/><path d="m270 253.102v31.898h105v-30c0-33.084-26.916-60-60-60 0 27.906-19.15 51.424-45 58.102z"/><path d="m240 253.102c-25.85-6.678-45-30.195-45-58.102-33.084 0-60 26.916-60 60v30h105z"/></g></svg>