<?xml version="1.0" ?><!DOCTYPE svg  PUBLIC '-//W3C//DTD SVG 1.1//EN'  'http://www.w3.org/Graphics/SVG/1.1/DTD/svg11.dtd'><svg enable-background="new 0 0 100 100" height="100px" id="Layer_1" version="1.1" viewBox="0 0 100 100" width="100px" xml:space="preserve" xmlns="http://www.w3.org/2000/svg" xmlns:xlink="http://www.w3.org/1999/xlink"><g><defs><rect height="100" id="SVGID_1_" width="100"/></defs><path d="M41.396,11.75c0,3.731-3.896,6.752-8.695,6.752c-4.805,0-8.703-3.021-8.703-6.752   C23.997,8.023,27.896,5,32.7,5C37.5,5,41.396,8.023,41.396,11.75 M71.841,5c-4.798,0-8.698,3.023-8.698,6.75   c0,3.731,3.899,6.752,8.698,6.752c4.806,0,8.701-3.021,8.701-6.752C80.542,8.023,76.646,5,71.841,5 M95,39.316   C95,45.962,80.128,95,41.892,95C3.658,95-0.596,59.051,10.028,36.891c2.125-4.436,4.249-4.887,4.249-4.887h74.348   C88.625,32.004,95,32.662,95,39.316 M85.986,41.005H17.798c-4.502,9-6.341,23.435-0.309,33.64   c5.573,9.406,16.344,11.371,24.403,11.371C70.885,86.016,83.829,50.005,85.986,41.005"/></g></svg>