<svg id="Capa_1" enable-background="new 0 0 512 512" height="512" viewBox="0 0 512 512" width="512" xmlns="http://www.w3.org/2000/svg"><g><g id="Team_Leader_1_"><g><path d="m90 182c-33.091 0-60-26.909-60-60s26.909-60 60-60 60 26.909 60 60-26.909 60-60 60z"/></g><g><path d="m422 182c-33.091 0-60-26.909-60-60s26.909-60 60-60 60 26.909 60 60-26.909 60-60 60z"/></g><g><path d="m256 150c-41.353 0-75-33.647-75-75s33.647-75 75-75 75 33.647 75 75-33.647 75-75 75z"/></g><path d="m271 151.516v103.484c0 8.291-6.709 15-15 15s-15-6.709-15-15v-103.484c-50.75 7.357-90 50.729-90 103.484v90c0 8.291 6.709 15 15 15h33.604l11.455 138.26c.644 7.763 7.148 13.74 14.941 13.74h60c7.793 0 14.297-5.977 14.941-13.74l11.455-138.26h33.604c8.291 0 15-6.709 15-15v-90c0-52.755-39.25-96.127-90-103.484z"/></g><path d="m120 347v-90c0-22.484 6.05-43.378 15.811-62.042-13.469-8.04-29.017-12.958-45.811-12.958-49.629 0-90 40.371-90 90v75c0 8.291 6.709 15 15 15h16.421l13.652 136.494c.762 7.661 7.222 13.506 14.927 13.506h60c7.705 0 14.165-5.845 14.927-13.506l11.087-110.843c-15.315-7.187-26.014-22.644-26.014-40.651z"/><path d="m512 272c0-49.629-40.371-90-90-90-16.794 0-32.342 4.918-45.811 12.958 9.761 18.664 15.811 39.558 15.811 62.042v90c0 18.007-10.699 33.464-26.014 40.651l11.087 110.843c.762 7.661 7.222 13.506 14.927 13.506h60c7.705 0 14.165-5.845 14.927-13.506l13.652-136.494h16.421c8.291 0 15-6.709 15-15z"/></g></svg>